<svg xmlns="http://www.w3.org/2000/svg" viewBox="0 0 512 512">
  <defs>
    <linearGradient id="bg" x1="0" y1="0" x2="512" y2="512" gradientUnits="userSpaceOnUse">
      <stop offset="0%" stop-color="#0C0C1D"/>
      <stop offset="100%" stop-color="#141428"/>
    </linearGradient>
  </defs>
  <!-- Background -->
  <rect width="512" height="512" rx="112" fill="url(#bg)"/>
  <!-- Bitcoin B — single compound path, official proportions -->
  <path fill-rule="evenodd" clip-rule="evenodd" d="
    M288 96 L288 128 L320 128
    C368 128 400 156 400 192
    C400 218 386 238 362 248
    C394 258 416 282 416 316
    C416 360 380 392 328 392
    L288 392 L288 424 L256 424 L256 392
    L224 392 L224 424 L192 424 L192 392
    L144 392 L144 360 L168 360 C176 360 176 356 176 352
    L176 168 C176 162 176 160 168 160
    L144 160 L144 128 L192 128 L192 96 L224 96 L224 128
    L256 128 L256 96 Z
    M216 192 L216 248 L296 248
    C324 248 344 234 344 220
    C344 206 324 192 296 192 Z
    M216 280 L216 360 L308 360
    C340 360 360 344 360 320
    C360 296 340 280 308 280 Z
  " fill="#F7931A"/>
</svg>
